<?xml version="1.0" encoding="UTF-8" standalone="no" ?>
<!DOCTYPE svg PUBLIC "-//W3C//DTD SVG 1.1//EN" "http://www.w3.org/Graphics/SVG/1.1/DTD/svg11.dtd">
<svg xmlns="http://www.w3.org/2000/svg" xmlns:xlink="http://www.w3.org/1999/xlink" version="1.1" width="500" height="500" viewBox="0 0 500 500" xml:space="preserve">
<desc>Created with Fabric.js 3.6.3</desc>
<defs>
</defs>
<rect x="0" y="0" width="100%" height="100%" fill="#00261C"></rect>
<g transform="matrix(1 0 0 1 237.47797504021804 377.8697663551401)" style=""  ><path fill="#ffffff" opacity="1" d="M-15.96-24.45L-23.50-24.45C-25.63-24.45-26.13-23.03-26.34-22.17L-33.38 2.00L-40.28-22.17C-40.56-23.17-41.06-24.45-42.62-24.45L-47.60-24.45C-49.24-24.45-49.73-23.17-50.02-22.17L-56.84 2.00L-63.88-22.17C-64.17-23.03-64.59-24.45-66.73-24.45L-74.55-24.45C-75.83-24.45-76.04-23.24-75.83-22.39L-62.67 20.84C-62.67 20.84-62.32 22.34-60.75 22.34L-54.50 22.34C-52.65 22.34-52.22 20.70-52.22 20.70L-45.11-1.98L-38.00 20.70C-38.00 20.70-37.58 22.34-35.73 22.34L-29.76 22.34C-28.19 22.34-27.84 20.84-27.84 20.84L-14.75-22.39C-14.47-23.24-14.68-24.45-15.96-24.45Z"/><path fill="#ffffff" opacity="1" d="M25.42-1.91C26.06-2.19 30.61-4.47 30.61-11.65C30.61-18.33 25.63-24.52 14.04-24.52L-5.87-24.52C-7.50-24.52-7.93-23.74-7.93-22.46L-7.93 20.27C-7.93 21.55-7.50 22.34-5.87 22.34L15.04 22.34C24.92 22.34 31.96 17.71 31.96 8.68C31.96 1.01 25.99-1.70 25.42-1.91ZM15.18 12.24L3.24 12.24L3.24-14.49L14.04-14.49C17.74-14.49 19.94-13.71 19.94-10.51C19.94-7.74 18.17-6.25 14.04-6.25L14.04-6.25L13.12-6.25C11.48-6.25 11.06-5.46 11.06-4.18L11.06 1.22C11.06 2.50 11.48 3.28 13.12 3.28L14.75 3.28C18.17 3.28 20.65 4.28 20.65 7.62C20.65 10.82 18.66 12.24 15.18 12.24Z"/><path fill="#ffffff" opacity="1" d="M72.56 12.38L52.08 12.38L52.08-22.39C52.08-24.02 51.30-24.45 50.02-24.45L42.98-24.45C41.70-24.45 40.92-24.02 40.92-22.39L40.92 20.27C40.92 21.55 41.34 22.34 42.98 22.34L72.56 22.34C74.19 22.34 74.62 21.55 74.62 20.27L74.62 14.44C74.62 13.16 74.19 12.38 72.56 12.38Z"/></g><g transform="matrix(0.22887109375 0 0 0.22887109375 240.1416542056075 151.1844579439252)"  >
<g style=""   >
		<g transform="matrix(1 0 0 1 120.49950006576788 68.54200000000003)"  >
<path style="stroke: none; stroke-width: 1; stroke-dasharray: none; stroke-linecap: butt; stroke-dashoffset: 0; stroke-linejoin: miter; stroke-miterlimit: 4; fill: rgb(255,255,255); fill-rule: nonzero; opacity: 1;"  transform=" translate(-375.99950006576785, -324.04200000000003)" d="M 467.301 168.084 c -1.805 0 -3.516 0.329 -5.07 0.962 l -2.281 1.15 l -171.475 88.938 l -3.888 1.996 c 0 0 -0.052 0.023 -0.052 0.047 c -7.56 4.668 -12.535 12.506 -12.535 21.425 v 185.854 c 0 6.382 5.649 11.544 12.69 11.544 c 2.178 0 4.251 -0.513 6.065 -1.404 c 0.155 -0.095 0.363 -0.188 0.519 -0.282 l 174.731 -92.694 l 0.259 -0.141 c 8.241 -4.504 13.735 -12.742 13.735 -22.105 V 179.582 C 480 173.223 474.299 168.084 467.301 168.084 z" stroke-linecap="round" />
</g>
		<g transform="matrix(1 0 0 1 0.15149999999999864 -119.5005)"  >
<path style="stroke: none; stroke-width: 1; stroke-dasharray: none; stroke-linecap: butt; stroke-dashoffset: 0; stroke-linejoin: miter; stroke-miterlimit: 4; fill: rgb(255,255,255); fill-rule: nonzero; opacity: 1;"  transform=" translate(-255.6515, -135.9995)" d="M 454.273 118.521 l -181.7 -81.731 c 0 0 -10.659 -4.79 -16.577 -4.79 s -16.526 4.79 -16.526 4.79 L 57.614 118.521 c 0 0 -7.989 3.292 -7.989 9.479 c 0 6.562 8.3 11.5 8.3 11.5 l 182.582 96.371 l 2.902 1.479 c 3.784 1.687 8.077 2.649 12.587 2.649 c 4.561 0 8.915 -0.963 12.742 -2.696 l 2.539 -1.315 l 182.893 -96.536 c 0 0 7.508 -4.036 7.508 -11.453 C 461.678 121.5 454.273 118.521 454.273 118.521 z" stroke-linecap="round" />
</g>
		<g transform="matrix(1 0 0 1 -119.499 68.543)"  >
<path style="stroke: none; stroke-width: 1; stroke-dasharray: none; stroke-linecap: butt; stroke-dashoffset: 0; stroke-linejoin: miter; stroke-miterlimit: 4; fill: rgb(255,255,255); fill-rule: nonzero; opacity: 1;"  transform=" translate(-136.001, -324.043)" d="M 227.466 261.178 l -3.992 -2.043 L 52.042 170.197 l -2.28 -1.15 c -1.495 -0.634 -3.258 -0.962 -5.071 -0.962 c -6.997 0 -12.69 5.138 -12.69 11.497 v 183.792 c 0 9.388 5.485 17.602 13.727 22.105 l 0.208 0.141 l 174.739 92.694 l 0 0 c 1.918 1.08 4.199 1.687 6.636 1.687 c 6.989 0 12.69 -5.162 12.69 -11.544 V 282.603 C 240 273.684 235.024 265.846 227.466 261.178 z" stroke-linecap="round" />
</g>
</g>
</g>
<g transform="matrix(0.06632292965933201 -0.21905078533464467 0.21905078533464467 0.06632292965933201 363.4594112149533 250)"  >
<g style=""   >
		<g transform="matrix(1 0 0 1 120.49950006576788 68.54200000000003)"  >
<path style="stroke: none; stroke-width: 1; stroke-dasharray: none; stroke-linecap: butt; stroke-dashoffset: 0; stroke-linejoin: miter; stroke-miterlimit: 4; fill: rgb(66,130,108); fill-rule: nonzero; opacity: 1;"  transform=" translate(-375.99950006576785, -324.04200000000003)" d="M 467.301 168.084 c -1.805 0 -3.516 0.329 -5.07 0.962 l -2.281 1.15 l -171.475 88.938 l -3.888 1.996 c 0 0 -0.052 0.023 -0.052 0.047 c -7.56 4.668 -12.535 12.506 -12.535 21.425 v 185.854 c 0 6.382 5.649 11.544 12.69 11.544 c 2.178 0 4.251 -0.513 6.065 -1.404 c 0.155 -0.095 0.363 -0.188 0.519 -0.282 l 174.731 -92.694 l 0.259 -0.141 c 8.241 -4.504 13.735 -12.742 13.735 -22.105 V 179.582 C 480 173.223 474.299 168.084 467.301 168.084 z" stroke-linecap="round" />
</g>
		<g transform="matrix(1 0 0 1 0.15149999999999864 -119.5005)"  >
<path style="stroke: none; stroke-width: 1; stroke-dasharray: none; stroke-linecap: butt; stroke-dashoffset: 0; stroke-linejoin: miter; stroke-miterlimit: 4; fill: rgb(66,130,108); fill-rule: nonzero; opacity: 1;"  transform=" translate(-255.6515, -135.9995)" d="M 454.273 118.521 l -181.7 -81.731 c 0 0 -10.659 -4.79 -16.577 -4.79 s -16.526 4.79 -16.526 4.79 L 57.614 118.521 c 0 0 -7.989 3.292 -7.989 9.479 c 0 6.562 8.3 11.5 8.3 11.5 l 182.582 96.371 l 2.902 1.479 c 3.784 1.687 8.077 2.649 12.587 2.649 c 4.561 0 8.915 -0.963 12.742 -2.696 l 2.539 -1.315 l 182.893 -96.536 c 0 0 7.508 -4.036 7.508 -11.453 C 461.678 121.5 454.273 118.521 454.273 118.521 z" stroke-linecap="round" />
</g>
		<g transform="matrix(1 0 0 1 -119.499 68.543)"  >
<path style="stroke: none; stroke-width: 1; stroke-dasharray: none; stroke-linecap: butt; stroke-dashoffset: 0; stroke-linejoin: miter; stroke-miterlimit: 4; fill: rgb(66,130,108); fill-rule: nonzero; opacity: 1;"  transform=" translate(-136.001, -324.043)" d="M 227.466 261.178 l -3.992 -2.043 L 52.042 170.197 l -2.28 -1.15 c -1.495 -0.634 -3.258 -0.962 -5.071 -0.962 c -6.997 0 -12.69 5.138 -12.69 11.497 v 183.792 c 0 9.388 5.485 17.602 13.727 22.105 l 0.208 0.141 l 174.739 92.694 l 0 0 c 1.918 1.08 4.199 1.687 6.636 1.687 c 6.989 0 12.69 -5.162 12.69 -11.544 V 282.603 C 240 273.684 235.024 265.846 227.466 261.178 z" stroke-linecap="round" />
</g>
</g>
</g>
<g transform="matrix(0.2068561356884019 -0.09794139412109039 0.09764086335495288 0.20622140270857706 114.11361682242993 245.32710280373826)"  >
<g style=""   >
		<g transform="matrix(1 0 0 1 120.49950006576788 68.54200000000003)"  >
<path style="stroke: none; stroke-width: 1; stroke-dasharray: none; stroke-linecap: butt; stroke-dashoffset: 0; stroke-linejoin: miter; stroke-miterlimit: 4; fill: rgb(94,178,153); fill-rule: nonzero; opacity: 1;"  transform=" translate(-375.99950006576785, -324.04200000000003)" d="M 467.301 168.084 c -1.805 0 -3.516 0.329 -5.07 0.962 l -2.281 1.15 l -171.475 88.938 l -3.888 1.996 c 0 0 -0.052 0.023 -0.052 0.047 c -7.56 4.668 -12.535 12.506 -12.535 21.425 v 185.854 c 0 6.382 5.649 11.544 12.69 11.544 c 2.178 0 4.251 -0.513 6.065 -1.404 c 0.155 -0.095 0.363 -0.188 0.519 -0.282 l 174.731 -92.694 l 0.259 -0.141 c 8.241 -4.504 13.735 -12.742 13.735 -22.105 V 179.582 C 480 173.223 474.299 168.084 467.301 168.084 z" stroke-linecap="round" />
</g>
		<g transform="matrix(1 0 0 1 0.15149999999999864 -119.5005)"  >
<path style="stroke: none; stroke-width: 1; stroke-dasharray: none; stroke-linecap: butt; stroke-dashoffset: 0; stroke-linejoin: miter; stroke-miterlimit: 4; fill: rgb(94,178,153); fill-rule: nonzero; opacity: 1;"  transform=" translate(-255.6515, -135.9995)" d="M 454.273 118.521 l -181.7 -81.731 c 0 0 -10.659 -4.79 -16.577 -4.79 s -16.526 4.79 -16.526 4.79 L 57.614 118.521 c 0 0 -7.989 3.292 -7.989 9.479 c 0 6.562 8.3 11.5 8.3 11.5 l 182.582 96.371 l 2.902 1.479 c 3.784 1.687 8.077 2.649 12.587 2.649 c 4.561 0 8.915 -0.963 12.742 -2.696 l 2.539 -1.315 l 182.893 -96.536 c 0 0 7.508 -4.036 7.508 -11.453 C 461.678 121.5 454.273 118.521 454.273 118.521 z" stroke-linecap="round" />
</g>
		<g transform="matrix(1 0 0 1 -119.499 68.543)"  >
<path style="stroke: none; stroke-width: 1; stroke-dasharray: none; stroke-linecap: butt; stroke-dashoffset: 0; stroke-linejoin: miter; stroke-miterlimit: 4; fill: rgb(94,178,153); fill-rule: nonzero; opacity: 1;"  transform=" translate(-136.001, -324.043)" d="M 227.466 261.178 l -3.992 -2.043 L 52.042 170.197 l -2.28 -1.15 c -1.495 -0.634 -3.258 -0.962 -5.071 -0.962 c -6.997 0 -12.69 5.138 -12.69 11.497 v 183.792 c 0 9.388 5.485 17.602 13.727 22.105 l 0.208 0.141 l 174.739 92.694 l 0 0 c 1.918 1.08 4.199 1.687 6.636 1.687 c 6.989 0 12.69 -5.162 12.69 -11.544 V 282.603 C 240 273.684 235.024 265.846 227.466 261.178 z" stroke-linecap="round" />
</g>
</g>
</g>
</svg>