<?xml version="1.0" encoding="UTF-8" standalone="no" ?>
<!DOCTYPE svg PUBLIC "-//W3C//DTD SVG 1.1//EN" "http://www.w3.org/Graphics/SVG/1.1/DTD/svg11.dtd">
<svg xmlns="http://www.w3.org/2000/svg" xmlns:xlink="http://www.w3.org/1999/xlink" version="1.1" width="500" height="500" viewBox="0 0 500 500" xml:space="preserve">
<desc>Created with Fabric.js 3.6.3</desc>
<defs>
</defs>
<g transform="matrix(0.47260985119854465 0 0 0.47260985119854465 256.14181116407707 149.35242289336327)"  >
<g style=""   >
		<g transform="matrix(1 0 0 1 120.49950006576788 68.54200000000003)"  >
<path style="stroke: none; stroke-width: 1; stroke-dasharray: none; stroke-linecap: butt; stroke-dashoffset: 0; stroke-linejoin: miter; stroke-miterlimit: 4; fill: rgb(139,173,163); fill-rule: nonzero; opacity: 1;"  transform=" translate(-375.99950006576785, -324.04200000000003)" d="M 467.301 168.084 c -1.805 0 -3.516 0.329 -5.07 0.962 l -2.281 1.15 l -171.475 88.938 l -3.888 1.996 c 0 0 -0.052 0.023 -0.052 0.047 c -7.56 4.668 -12.535 12.506 -12.535 21.425 v 185.854 c 0 6.382 5.649 11.544 12.69 11.544 c 2.178 0 4.251 -0.513 6.065 -1.404 c 0.155 -0.095 0.363 -0.188 0.519 -0.282 l 174.731 -92.694 l 0.259 -0.141 c 8.241 -4.504 13.735 -12.742 13.735 -22.105 V 179.582 C 480 173.223 474.299 168.084 467.301 168.084 z" stroke-linecap="round" />
</g>
		<g transform="matrix(1 0 0 1 0.15149999999999864 -119.5005)"  >
<path style="stroke: none; stroke-width: 1; stroke-dasharray: none; stroke-linecap: butt; stroke-dashoffset: 0; stroke-linejoin: miter; stroke-miterlimit: 4; fill: rgb(139,173,163); fill-rule: nonzero; opacity: 1;"  transform=" translate(-255.6515, -135.9995)" d="M 454.273 118.521 l -181.7 -81.731 c 0 0 -10.659 -4.79 -16.577 -4.79 s -16.526 4.79 -16.526 4.79 L 57.614 118.521 c 0 0 -7.989 3.292 -7.989 9.479 c 0 6.562 8.3 11.5 8.3 11.5 l 182.582 96.371 l 2.902 1.479 c 3.784 1.687 8.077 2.649 12.587 2.649 c 4.561 0 8.915 -0.963 12.742 -2.696 l 2.539 -1.315 l 182.893 -96.536 c 0 0 7.508 -4.036 7.508 -11.453 C 461.678 121.5 454.273 118.521 454.273 118.521 z" stroke-linecap="round" />
</g>
		<g transform="matrix(1 0 0 1 -119.499 68.543)"  >
<path style="stroke: none; stroke-width: 1; stroke-dasharray: none; stroke-linecap: butt; stroke-dashoffset: 0; stroke-linejoin: miter; stroke-miterlimit: 4; fill: rgb(139,173,163); fill-rule: nonzero; opacity: 1;"  transform=" translate(-136.001, -324.043)" d="M 227.466 261.178 l -3.992 -2.043 L 52.042 170.197 l -2.28 -1.15 c -1.495 -0.634 -3.258 -0.962 -5.071 -0.962 c -6.997 0 -12.69 5.138 -12.69 11.497 v 183.792 c 0 9.388 5.485 17.602 13.727 22.105 l 0.208 0.141 l 174.739 92.694 l 0 0 c 1.918 1.08 4.199 1.687 6.636 1.687 c 6.989 0 12.69 -5.162 12.69 -11.544 V 282.603 C 240 273.684 235.024 265.846 227.466 261.178 z" stroke-linecap="round" />
</g>
</g>
</g>
<g transform="matrix(0.47260985119854465 0 0 0.47260985119854465 388.4491221826777 341.2779909271445)"  >
<g style=""   >
		<g transform="matrix(1 0 0 1 120.49950006576788 68.54200000000003)"  >
<path style="stroke: none; stroke-width: 1; stroke-dasharray: none; stroke-linecap: butt; stroke-dashoffset: 0; stroke-linejoin: miter; stroke-miterlimit: 4; fill: rgb(139,173,163); fill-rule: nonzero; opacity: 1;"  transform=" translate(-375.99950006576785, -324.04200000000003)" d="M 467.301 168.084 c -1.805 0 -3.516 0.329 -5.07 0.962 l -2.281 1.15 l -171.475 88.938 l -3.888 1.996 c 0 0 -0.052 0.023 -0.052 0.047 c -7.56 4.668 -12.535 12.506 -12.535 21.425 v 185.854 c 0 6.382 5.649 11.544 12.69 11.544 c 2.178 0 4.251 -0.513 6.065 -1.404 c 0.155 -0.095 0.363 -0.188 0.519 -0.282 l 174.731 -92.694 l 0.259 -0.141 c 8.241 -4.504 13.735 -12.742 13.735 -22.105 V 179.582 C 480 173.223 474.299 168.084 467.301 168.084 z" stroke-linecap="round" />
</g>
		<g transform="matrix(1 0 0 1 0.15149999999999864 -119.5005)"  >
<path style="stroke: none; stroke-width: 1; stroke-dasharray: none; stroke-linecap: butt; stroke-dashoffset: 0; stroke-linejoin: miter; stroke-miterlimit: 4; fill: rgb(139,173,163); fill-rule: nonzero; opacity: 1;"  transform=" translate(-255.6515, -135.9995)" d="M 454.273 118.521 l -181.7 -81.731 c 0 0 -10.659 -4.79 -16.577 -4.79 s -16.526 4.79 -16.526 4.79 L 57.614 118.521 c 0 0 -7.989 3.292 -7.989 9.479 c 0 6.562 8.3 11.5 8.3 11.5 l 182.582 96.371 l 2.902 1.479 c 3.784 1.687 8.077 2.649 12.587 2.649 c 4.561 0 8.915 -0.963 12.742 -2.696 l 2.539 -1.315 l 182.893 -96.536 c 0 0 7.508 -4.036 7.508 -11.453 C 461.678 121.5 454.273 118.521 454.273 118.521 z" stroke-linecap="round" />
</g>
		<g transform="matrix(1 0 0 1 -119.499 68.543)"  >
<path style="stroke: none; stroke-width: 1; stroke-dasharray: none; stroke-linecap: butt; stroke-dashoffset: 0; stroke-linejoin: miter; stroke-miterlimit: 4; fill: rgb(139,173,163); fill-rule: nonzero; opacity: 1;"  transform=" translate(-136.001, -324.043)" d="M 227.466 261.178 l -3.992 -2.043 L 52.042 170.197 l -2.28 -1.15 c -1.495 -0.634 -3.258 -0.962 -5.071 -0.962 c -6.997 0 -12.69 5.138 -12.69 11.497 v 183.792 c 0 9.388 5.485 17.602 13.727 22.105 l 0.208 0.141 l 174.739 92.694 l 0 0 c 1.918 1.08 4.199 1.687 6.636 1.687 c 6.989 0 12.69 -5.162 12.69 -11.544 V 282.603 C 240 273.684 235.024 265.846 227.466 261.178 z" stroke-linecap="round" />
</g>
</g>
</g>
<g transform="matrix(0.47260985119854465 0 0 0.47260985119854465 111.55087781732216 341.2779909271445)"  >
<g style=""   >
		<g transform="matrix(1 0 0 1 120.49950006576788 68.54200000000003)"  >
<path style="stroke: none; stroke-width: 1; stroke-dasharray: none; stroke-linecap: butt; stroke-dashoffset: 0; stroke-linejoin: miter; stroke-miterlimit: 4; fill: rgb(139,173,163); fill-rule: nonzero; opacity: 1;"  transform=" translate(-375.99950006576785, -324.04200000000003)" d="M 467.301 168.084 c -1.805 0 -3.516 0.329 -5.07 0.962 l -2.281 1.15 l -171.475 88.938 l -3.888 1.996 c 0 0 -0.052 0.023 -0.052 0.047 c -7.56 4.668 -12.535 12.506 -12.535 21.425 v 185.854 c 0 6.382 5.649 11.544 12.69 11.544 c 2.178 0 4.251 -0.513 6.065 -1.404 c 0.155 -0.095 0.363 -0.188 0.519 -0.282 l 174.731 -92.694 l 0.259 -0.141 c 8.241 -4.504 13.735 -12.742 13.735 -22.105 V 179.582 C 480 173.223 474.299 168.084 467.301 168.084 z" stroke-linecap="round" />
</g>
		<g transform="matrix(1 0 0 1 0.15149999999999864 -119.5005)"  >
<path style="stroke: none; stroke-width: 1; stroke-dasharray: none; stroke-linecap: butt; stroke-dashoffset: 0; stroke-linejoin: miter; stroke-miterlimit: 4; fill: rgb(139,173,163); fill-rule: nonzero; opacity: 1;"  transform=" translate(-255.6515, -135.9995)" d="M 454.273 118.521 l -181.7 -81.731 c 0 0 -10.659 -4.79 -16.577 -4.79 s -16.526 4.79 -16.526 4.79 L 57.614 118.521 c 0 0 -7.989 3.292 -7.989 9.479 c 0 6.562 8.3 11.5 8.3 11.5 l 182.582 96.371 l 2.902 1.479 c 3.784 1.687 8.077 2.649 12.587 2.649 c 4.561 0 8.915 -0.963 12.742 -2.696 l 2.539 -1.315 l 182.893 -96.536 c 0 0 7.508 -4.036 7.508 -11.453 C 461.678 121.5 454.273 118.521 454.273 118.521 z" stroke-linecap="round" />
</g>
		<g transform="matrix(1 0 0 1 -119.499 68.543)"  >
<path style="stroke: none; stroke-width: 1; stroke-dasharray: none; stroke-linecap: butt; stroke-dashoffset: 0; stroke-linejoin: miter; stroke-miterlimit: 4; fill: rgb(139,173,163); fill-rule: nonzero; opacity: 1;"  transform=" translate(-136.001, -324.043)" d="M 227.466 261.178 l -3.992 -2.043 L 52.042 170.197 l -2.28 -1.15 c -1.495 -0.634 -3.258 -0.962 -5.071 -0.962 c -6.997 0 -12.69 5.138 -12.69 11.497 v 183.792 c 0 9.388 5.485 17.602 13.727 22.105 l 0.208 0.141 l 174.739 92.694 l 0 0 c 1.918 1.08 4.199 1.687 6.636 1.687 c 6.989 0 12.69 -5.162 12.69 -11.544 V 282.603 C 240 273.684 235.024 265.846 227.466 261.178 z" stroke-linecap="round" />
</g>
</g>
</g>
</svg>